<?xml version="1.0" encoding="UTF-8"?>
<svg xmlns="http://www.w3.org/2000/svg" xmlns:xlink="http://www.w3.org/1999/xlink" viewBox="0 0 400 400" width="400px" height="400px">
<g id="surface52044892">
<path style=" stroke:none;fill-rule:nonzero;fill:rgb(48.627451%,16.862746%,43.529412%);fill-opacity:1;" d="M 366.667969 200 C 366.667969 292.042969 292.042969 366.667969 200 366.667969 C 107.957031 366.667969 33.332031 292.042969 33.332031 200 C 33.332031 107.957031 107.957031 33.332031 200 33.332031 C 292.042969 33.332031 366.667969 107.957031 366.667969 200 Z M 366.667969 200 "/>
<path style=" stroke:none;fill-rule:nonzero;fill:rgb(100%,100%,100%);fill-opacity:1;" d="M 183.332031 183.332031 L 216.667969 183.332031 L 216.667969 275 L 183.332031 275 Z M 220.832031 137.5 C 220.832031 148.992188 211.492188 158.332031 200 158.332031 C 188.507812 158.332031 179.167969 148.992188 179.167969 137.5 C 179.167969 126.007812 188.507812 116.667969 200 116.667969 C 211.492188 116.667969 220.832031 126.007812 220.832031 137.5 Z M 220.832031 137.5 "/>
</g>
</svg>
